<?xml version="1.0" ?><!DOCTYPE svg  PUBLIC '-//W3C//DTD SVG 1.1//EN'  'http://www.w3.org/Graphics/SVG/1.1/DTD/svg11.dtd'><svg height="100%" style="fill-rule:evenodd;clip-rule:evenodd;stroke-linejoin:round;stroke-miterlimit:2;" version="1.1" viewBox="0 0 512 512" width="100%" xml:space="preserve" xmlns="http://www.w3.org/2000/svg" xmlns:serif="http://www.serif.com/" xmlns:xlink="http://www.w3.org/1999/xlink"><path d="M449.446,0c34.525,0 62.554,28.03 62.554,62.554l0,386.892c0,34.524 -28.03,62.554 -62.554,62.554l-386.892,0c-34.524,0 -62.554,-28.03 -62.554,-62.554l0,-386.892c0,-34.524 28.029,-62.554 62.554,-62.554l386.892,0Zm-88.659,240.361l-0.008,0c-6.736,-0.257 -9.718,-3.13 -10.09,-3.508c0.173,-3.184 0.381,-6.509 0.596,-9.93l0.065,-1.068c1.551,-24.565 3.474,-55.137 -4.305,-72.583c-23.324,-52.294 -72.863,-56.363 -87.492,-56.363l-0.864,0.004c0,0 -6.024,0.064 -6.398,0.064c-14.595,0 -64.028,4.061 -87.339,56.327c-7.778,17.436 -5.859,47.983 -4.31,72.567c0.24,3.793 0.475,7.467 0.663,10.986c-0.396,0.41 -3.639,3.532 -11.07,3.532c-5.378,0 -11.61,-1.64 -18.525,-4.88c-1.189,-0.556 -2.603,-0.84 -4.207,-0.84c-5.856,0 -13.096,3.775 -14.127,9.193c-0.603,3.18 0.677,9.417 16.049,15.495c1.409,0.556 3.196,1.12 5.08,1.716c7.705,2.444 19.344,6.141 22.911,14.55c1.948,4.589 1.325,10.188 -1.857,16.637c-0.03,0.062 -0.058,0.122 -0.084,0.184c-0.969,2.257 -24.286,55.403 -76.284,63.966c-1.919,0.313 -3.295,2.029 -3.185,3.97c0.041,0.718 0.214,1.441 0.521,2.164c2.158,5.055 11.839,12.18 45.665,17.403c2.903,0.447 3.975,4.705 5.487,11.629c0.587,2.692 1.197,5.474 2.039,8.345c0.97,3.315 3.203,3.76 5.264,3.76c1.971,0 4.566,-0.506 7.574,-1.094c4.948,-0.968 11.727,-2.294 20.32,-2.294c4.771,0 9.707,0.417 14.666,1.237c10.162,1.692 18.787,7.79 27.928,14.247c13.236,9.36 26.925,19.037 48.252,19.037c0.608,0 1.215,-0.027 1.797,-0.071l0.002,0c0.912,0.043 1.823,0.071 2.751,0.071c21.333,0 35.019,-9.677 48.283,-19.056c9.123,-6.45 17.742,-12.536 27.894,-14.228c4.961,-0.82 9.9,-1.237 14.672,-1.237c8.172,0 14.595,1.032 20.324,2.152c3.23,0.634 5.778,0.955 7.572,0.955l0.421,0c2.583,0 4.119,-1.153 4.839,-3.617c0.836,-2.839 1.443,-5.539 2.043,-8.288c1.65,-7.554 2.721,-11.156 5.485,-11.58c33.838,-5.229 43.511,-12.345 45.657,-17.363c0.312,-0.714 0.489,-1.448 0.532,-2.176c0.105,-1.945 -1.266,-3.656 -3.187,-3.974c-52.02,-8.572 -75.319,-61.703 -76.285,-63.958c-0.025,-0.066 -0.057,-0.126 -0.087,-0.188c-3.181,-6.453 -3.805,-12.048 -1.855,-16.635c3.565,-8.407 15.201,-12.1 22.912,-14.548c1.893,-0.599 3.68,-1.167 5.077,-1.716c13.489,-5.329 16.238,-10.744 16.171,-14.345c-0.073,-3.826 -3.494,-7.487 -8.718,-9.337l-0.111,-0.046c-1.839,-0.767 -4.055,-1.189 -6.24,-1.189c-1.43,0 -3.532,0.185 -5.424,1.069c-6.457,3.024 -12.341,4.656 -17.46,4.852Z"/></svg>
